<svg xmlns="http://www.w3.org/2000/svg" xmlns:xlink="http://www.w3.org/1999/xlink" version="1.1" viewBox="0 0 29 29"><path fill="#FFFFFF" d="M0,0 h29v29H0z" shape-rendering="crispEdges"></path><path fill="#000000" d="M0 0h7v1H0zM9 0h1v1H9zM11 0h1v1H11zM16 0h5v1H16zM22,0 h7v1H22zM0 1h1v1H0zM6 1h1v1H6zM13 1h1v1H13zM15 1h1v1H15zM18 1h1v1H18zM22 1h1v1H22zM28,1 h1v1H28zM0 2h1v1H0zM2 2h3v1H2zM6 2h1v1H6zM8 2h2v1H8zM11 2h2v1H11zM15 2h2v1H15zM20 2h1v1H20zM22 2h1v1H22zM24 2h3v1H24zM28,2 h1v1H28zM0 3h1v1H0zM2 3h3v1H2zM6 3h1v1H6zM8 3h5v1H8zM17 3h1v1H17zM19 3h1v1H19zM22 3h1v1H22zM24 3h3v1H24zM28,3 h1v1H28zM0 4h1v1H0zM2 4h3v1H2zM6 4h1v1H6zM8 4h2v1H8zM11 4h1v1H11zM13 4h1v1H13zM15 4h6v1H15zM22 4h1v1H22zM24 4h3v1H24zM28,4 h1v1H28zM0 5h1v1H0zM6 5h1v1H6zM8 5h4v1H8zM13 5h5v1H13zM22 5h1v1H22zM28,5 h1v1H28zM0 6h7v1H0zM8 6h1v1H8zM10 6h1v1H10zM12 6h1v1H12zM14 6h1v1H14zM16 6h1v1H16zM18 6h1v1H18zM20 6h1v1H20zM22,6 h7v1H22zM8 7h3v1H8zM12 7h2v1H12zM18 7h3v1H18zM0 8h1v1H0zM2 8h5v1H2zM9 8h3v1H9zM14 8h1v1H14zM17 8h1v1H17zM19 8h1v1H19zM22 8h5v1H22zM0 9h1v1H0zM2 9h1v1H2zM4 9h1v1H4zM7 9h1v1H7zM10 9h3v1H10zM16 9h4v1H16zM21 9h4v1H21zM28,9 h1v1H28zM2 10h7v1H2zM10 10h1v1H10zM12 10h1v1H12zM15 10h4v1H15zM21 10h2v1H21zM1 11h1v1H1zM3 11h1v1H3zM5 11h1v1H5zM7 11h2v1H7zM11 11h2v1H11zM14 11h1v1H14zM16 11h1v1H16zM24 11h2v1H24zM27 11h1v1H27zM0 12h1v1H0zM5 12h2v1H5zM8 12h5v1H8zM15 12h4v1H15zM20 12h1v1H20zM23 12h1v1H23zM25 12h2v1H25zM0 13h2v1H0zM4 13h1v1H4zM9 13h3v1H9zM13 13h2v1H13zM17 13h8v1H17zM28,13 h1v1H28zM2 14h1v1H2zM6 14h1v1H6zM10 14h1v1H10zM12 14h6v1H12zM25 14h2v1H25zM2 15h2v1H2zM10 15h1v1H10zM13 15h1v1H13zM15 15h1v1H15zM21 15h1v1H21zM23 15h2v1H23zM27 15h1v1H27zM3 16h1v1H3zM6 16h3v1H6zM10 16h2v1H10zM14 16h1v1H14zM16 16h3v1H16zM20 16h1v1H20zM25 16h2v1H25zM0 17h4v1H0zM5 17h1v1H5zM7 17h1v1H7zM15 17h2v1H15zM19 17h6v1H19zM26 17h1v1H26zM28,17 h1v1H28zM0 18h1v1H0zM3 18h2v1H3zM6 18h2v1H6zM11 18h2v1H11zM15 18h3v1H15zM20 18h1v1H20zM23 18h2v1H23zM26 18h1v1H26zM0 19h1v1H0zM2 19h1v1H2zM5 19h1v1H5zM7 19h5v1H7zM14 19h3v1H14zM18 19h1v1H18zM22 19h1v1H22zM27 19h1v1H27zM0 20h1v1H0zM3 20h2v1H3zM6 20h3v1H6zM11 20h2v1H11zM17 20h2v1H17zM20 20h5v1H20zM26,20 h3v1H26zM8 21h3v1H8zM12 21h5v1H12zM20 21h1v1H20zM24,21 h5v1H24zM0 22h7v1H0zM9 22h1v1H9zM12 22h9v1H12zM22 22h1v1H22zM24 22h3v1H24zM0 23h1v1H0zM6 23h1v1H6zM8 23h3v1H8zM13 23h1v1H13zM15 23h2v1H15zM18 23h3v1H18zM24 23h1v1H24zM0 24h1v1H0zM2 24h3v1H2zM6 24h1v1H6zM8 24h1v1H8zM14 24h4v1H14zM20 24h5v1H20zM26 24h1v1H26zM0 25h1v1H0zM2 25h3v1H2zM6 25h1v1H6zM8 25h1v1H8zM10 25h4v1H10zM15 25h2v1H15zM20 25h1v1H20zM23 25h1v1H23zM25,25 h4v1H25zM0 26h1v1H0zM2 26h3v1H2zM6 26h1v1H6zM8 26h1v1H8zM10 26h2v1H10zM13 26h1v1H13zM15 26h1v1H15zM17 26h1v1H17zM19 26h9v1H19zM0 27h1v1H0zM6 27h1v1H6zM9 27h1v1H9zM12 27h1v1H12zM15 27h1v1H15zM18 27h1v1H18zM20 27h1v1H20zM23 27h3v1H23zM27 27h1v1H27zM0 28h7v1H0zM8 28h2v1H8zM11 28h2v1H11zM16 28h2v1H16zM23 28h1v1H23zM26 28h1v1H26z" shape-rendering="crispEdges"></path></svg>